<svg xmlns="http://www.w3.org/2000/svg" xmlns:xlink="http://www.w3.org/1999/xlink" width="1920" zoomAndPan="magnify" viewBox="0 0 1440 809.999993" height="1080" preserveAspectRatio="xMidYMid meet" version="1.0"><defs><g/></defs><g fill="#ff3131" fill-opacity="1"><g transform="translate(707.283916, 528.399006)"><g><path d="M 3.359375 -5.09375 C 3.410156 -5.09375 3.457031 -5.085938 3.5 -5.078125 C 3.539062 -5.066406 3.570312 -5.054688 3.59375 -5.046875 C 3.65625 -5.015625 3.6875 -4.976562 3.6875 -4.9375 C 3.6875 -4.894531 3.65625 -4.859375 3.59375 -4.828125 C 3.539062 -4.804688 3.460938 -4.796875 3.359375 -4.796875 C 3.203125 -4.796875 3.03125 -4.796875 2.84375 -4.796875 C 2.65625 -4.804688 2.457031 -4.816406 2.25 -4.828125 C 2.039062 -4.835938 1.84375 -4.84375 1.65625 -4.84375 C 1.46875 -4.851562 1.289062 -4.859375 1.125 -4.859375 C 1.125 -4.585938 1.125 -4.320312 1.125 -4.0625 C 1.132812 -3.800781 1.144531 -3.550781 1.15625 -3.3125 L 1.1875 -2.703125 L 2.3125 -2.71875 C 2.414062 -2.71875 2.492188 -2.703125 2.546875 -2.671875 C 2.609375 -2.640625 2.640625 -2.601562 2.640625 -2.5625 C 2.640625 -2.488281 2.554688 -2.441406 2.390625 -2.421875 C 2.296875 -2.410156 2.191406 -2.398438 2.078125 -2.390625 C 1.972656 -2.390625 1.851562 -2.390625 1.71875 -2.390625 L 1.1875 -2.390625 C 1.195312 -2.066406 1.210938 -1.78125 1.234375 -1.53125 C 1.253906 -1.289062 1.28125 -1.066406 1.3125 -0.859375 C 1.351562 -0.660156 1.40625 -0.460938 1.46875 -0.265625 L 1.59375 -0.140625 C 1.726562 -0.109375 1.859375 -0.09375 1.984375 -0.09375 C 2.160156 -0.09375 2.335938 -0.109375 2.515625 -0.140625 C 2.691406 -0.171875 2.910156 -0.226562 3.171875 -0.3125 L 3.40625 -0.375 C 3.5 -0.40625 3.578125 -0.421875 3.640625 -0.421875 C 3.722656 -0.421875 3.789062 -0.40625 3.84375 -0.375 C 3.90625 -0.34375 3.9375 -0.304688 3.9375 -0.265625 C 3.9375 -0.191406 3.816406 -0.117188 3.578125 -0.046875 C 3.421875 -0.00390625 3.242188 0.0351562 3.046875 0.078125 C 2.847656 0.117188 2.65625 0.148438 2.46875 0.171875 C 2.28125 0.203125 2.125 0.21875 2 0.21875 L 1.84375 0.203125 C 1.695312 0.203125 1.550781 0.1875 1.40625 0.15625 C 1.257812 0.132812 1.15625 0.0976562 1.09375 0.046875 C 0.90625 -0.128906 0.785156 -0.363281 0.734375 -0.65625 C 0.710938 -0.738281 0.691406 -0.820312 0.671875 -0.90625 C 0.660156 -1 0.648438 -1.09375 0.640625 -1.1875 C 0.617188 -1.3125 0.597656 -1.46875 0.578125 -1.65625 C 0.566406 -1.851562 0.554688 -2.097656 0.546875 -2.390625 L 0.25 -2.390625 C 0.0703125 -2.410156 -0.015625 -2.457031 -0.015625 -2.53125 C -0.015625 -2.5625 0.00390625 -2.59375 0.046875 -2.625 C 0.0976562 -2.65625 0.164062 -2.675781 0.25 -2.6875 L 0.53125 -2.6875 C 0.519531 -2.726562 0.515625 -2.796875 0.515625 -2.890625 C 0.515625 -2.984375 0.515625 -3.101562 0.515625 -3.25 C 0.515625 -3.519531 0.519531 -3.800781 0.53125 -4.09375 C 0.539062 -4.394531 0.554688 -4.703125 0.578125 -5.015625 C 0.617188 -5.066406 0.691406 -5.109375 0.796875 -5.140625 L 0.859375 -5.140625 C 1.273438 -5.140625 1.691406 -5.132812 2.109375 -5.125 C 2.660156 -5.101562 3.078125 -5.09375 3.359375 -5.09375 Z M 3.359375 -5.09375 "/></g></g></g><g fill="#ff3131" fill-opacity="1"><g transform="translate(711.036677, 528.399006)"><g><path d="M 3.109375 -4.390625 C 3.160156 -4.472656 3.273438 -4.515625 3.453125 -4.515625 C 3.628906 -4.515625 3.71875 -4.460938 3.71875 -4.359375 C 3.71875 -4.335938 3.710938 -4.328125 3.703125 -4.328125 L 2.546875 -2.5625 C 2.941406 -2.007812 3.28125 -1.523438 3.5625 -1.109375 C 3.851562 -0.703125 4.085938 -0.367188 4.265625 -0.109375 C 4.265625 -0.0976562 4.265625 -0.078125 4.265625 -0.046875 C 4.265625 -0.00390625 4.238281 0.0234375 4.1875 0.046875 C 4.144531 0.078125 4.082031 0.09375 4 0.09375 C 3.832031 0.09375 3.722656 0.0507812 3.671875 -0.03125 C 3.453125 -0.363281 3.234375 -0.6875 3.015625 -1 C 2.796875 -1.3125 2.578125 -1.625 2.359375 -1.9375 L 2.25 -2.09375 L 0.578125 0.46875 C 0.503906 0.53125 0.394531 0.5625 0.25 0.5625 C 0.0820312 0.5625 0 0.503906 0 0.390625 L 1.171875 -1.4375 L 1.921875 -2.5625 C 1.617188 -2.96875 1.332031 -3.363281 1.0625 -3.75 C 0.800781 -4.132812 0.550781 -4.515625 0.3125 -4.890625 C 0.3125 -5.003906 0.390625 -5.0625 0.546875 -5.0625 C 0.703125 -5.0625 0.820312 -5.023438 0.90625 -4.953125 C 1.132812 -4.609375 1.359375 -4.273438 1.578125 -3.953125 C 1.796875 -3.640625 2.007812 -3.332031 2.21875 -3.03125 Z M 3.109375 -4.390625 "/></g></g></g><g fill="#ff3131" fill-opacity="1"><g transform="translate(715.427711, 528.399006)"><g><path d="M 1.03125 0.046875 C 1 0.148438 0.90625 0.203125 0.75 0.203125 C 0.6875 0.203125 0.625 0.1875 0.5625 0.15625 C 0.5 0.132812 0.457031 0.101562 0.4375 0.0625 C 0.414062 -0.1875 0.398438 -0.445312 0.390625 -0.71875 C 0.378906 -1 0.375 -1.289062 0.375 -1.59375 C 0.28125 -1.625 0.234375 -1.660156 0.234375 -1.703125 C 0.234375 -1.742188 0.273438 -1.785156 0.359375 -1.828125 L 0.328125 -3.0625 C 0.296875 -4.039062 0.28125 -4.78125 0.28125 -5.28125 C 0.28125 -5.332031 0.300781 -5.367188 0.34375 -5.390625 C 0.375 -5.410156 0.445312 -5.429688 0.5625 -5.453125 C 0.988281 -5.453125 1.382812 -5.390625 1.75 -5.265625 C 2.113281 -5.148438 2.410156 -4.96875 2.640625 -4.71875 C 2.890625 -4.445312 3.015625 -4.09375 3.015625 -3.65625 C 3.015625 -3.363281 2.914062 -3.078125 2.71875 -2.796875 C 2.519531 -2.523438 2.257812 -2.285156 1.9375 -2.078125 C 1.625 -1.890625 1.304688 -1.742188 0.984375 -1.640625 L 1 -0.921875 L 1.03125 -0.109375 C 1.03125 -0.0859375 1.03125 -0.0625 1.03125 -0.03125 C 1.03125 -0.0078125 1.03125 0.015625 1.03125 0.046875 Z M 0.96875 -2.625 L 0.984375 -2.015625 C 1.421875 -2.203125 1.765625 -2.4375 2.015625 -2.71875 C 2.273438 -3.007812 2.40625 -3.328125 2.40625 -3.671875 C 2.40625 -3.921875 2.335938 -4.15625 2.203125 -4.375 C 2.078125 -4.59375 1.894531 -4.769531 1.65625 -4.90625 C 1.425781 -5.039062 1.175781 -5.117188 0.90625 -5.140625 Z M 0.96875 -2.625 "/></g></g></g><g fill="#ff3131" fill-opacity="1"><g transform="translate(718.649849, 528.399006)"><g><path d="M 0.140625 -5.265625 C 0.140625 -5.316406 0.164062 -5.359375 0.21875 -5.390625 C 0.269531 -5.421875 0.335938 -5.4375 0.421875 -5.4375 C 0.492188 -5.4375 0.5625 -5.421875 0.625 -5.390625 C 0.6875 -5.359375 0.726562 -5.320312 0.75 -5.28125 C 0.769531 -4.789062 0.789062 -4.273438 0.8125 -3.734375 C 0.84375 -3.191406 0.867188 -2.660156 0.890625 -2.140625 L 0.890625 -1.921875 C 0.898438 -1.816406 0.90625 -1.628906 0.90625 -1.359375 C 0.914062 -1.085938 0.929688 -0.734375 0.953125 -0.296875 L 1.625 -0.359375 C 2.144531 -0.398438 2.539062 -0.441406 2.8125 -0.484375 C 2.894531 -0.472656 2.96875 -0.453125 3.03125 -0.421875 C 3.101562 -0.390625 3.140625 -0.351562 3.140625 -0.3125 C 3.140625 -0.238281 2.96875 -0.179688 2.625 -0.140625 C 2.300781 -0.0976562 1.835938 -0.0507812 1.234375 0 L 0.734375 0.03125 L 0.640625 0.03125 C 0.503906 0.03125 0.410156 -0.0078125 0.359375 -0.09375 C 0.304688 -1 0.265625 -1.925781 0.234375 -2.875 C 0.222656 -3.15625 0.210938 -3.457031 0.203125 -3.78125 C 0.191406 -4.113281 0.175781 -4.472656 0.15625 -4.859375 Z M 0.140625 -5.265625 "/></g></g></g><g fill="#ff3131" fill-opacity="1"><g transform="translate(721.756641, 528.399006)"><g><path d="M 1.96875 -5.015625 C 2.164062 -4.972656 2.316406 -4.914062 2.421875 -4.84375 C 2.640625 -4.707031 2.800781 -4.476562 2.90625 -4.15625 C 3.007812 -3.84375 3.0625 -3.460938 3.0625 -3.015625 C 3.0625 -2.078125 2.851562 -1.253906 2.4375 -0.546875 C 2.207031 -0.171875 1.878906 0.015625 1.453125 0.015625 C 1.097656 0.015625 0.816406 -0.0976562 0.609375 -0.328125 C 0.410156 -0.554688 0.28125 -0.851562 0.21875 -1.21875 C 0.195312 -1.375 0.175781 -1.546875 0.15625 -1.734375 C 0.144531 -1.921875 0.140625 -2.128906 0.140625 -2.359375 C 0.140625 -2.984375 0.222656 -3.507812 0.390625 -3.9375 C 0.554688 -4.375 0.832031 -4.691406 1.21875 -4.890625 C 1.375 -4.972656 1.582031 -5.015625 1.84375 -5.015625 Z M 2.421875 -3.5 C 2.304688 -4.300781 2.09375 -4.703125 1.78125 -4.703125 C 1.769531 -4.703125 1.71875 -4.6875 1.625 -4.65625 C 1.289062 -4.507812 1.0625 -4.210938 0.9375 -3.765625 C 0.820312 -3.328125 0.765625 -2.769531 0.765625 -2.09375 C 0.765625 -1.832031 0.78125 -1.59375 0.8125 -1.375 C 0.84375 -1.164062 0.898438 -0.945312 0.984375 -0.71875 C 1.078125 -0.457031 1.222656 -0.316406 1.421875 -0.296875 L 1.484375 -0.3125 C 1.691406 -0.4375 1.863281 -0.632812 2 -0.90625 C 2.144531 -1.1875 2.253906 -1.503906 2.328125 -1.859375 C 2.410156 -2.222656 2.453125 -2.597656 2.453125 -2.984375 C 2.453125 -3.097656 2.445312 -3.195312 2.4375 -3.28125 C 2.4375 -3.363281 2.429688 -3.4375 2.421875 -3.5 Z M 2.421875 -3.5 "/></g></g></g><g fill="#ff3131" fill-opacity="1"><g transform="translate(725.055686, 528.399006)"><g><path d="M 1.03125 0.046875 C 1 0.148438 0.90625 0.203125 0.75 0.203125 C 0.6875 0.203125 0.625 0.1875 0.5625 0.15625 C 0.5 0.132812 0.457031 0.101562 0.4375 0.0625 C 0.414062 -0.1875 0.398438 -0.445312 0.390625 -0.71875 C 0.378906 -1 0.375 -1.289062 0.375 -1.59375 C 0.28125 -1.625 0.234375 -1.660156 0.234375 -1.703125 C 0.234375 -1.742188 0.273438 -1.785156 0.359375 -1.828125 L 0.328125 -3.0625 C 0.296875 -4.039062 0.28125 -4.78125 0.28125 -5.28125 C 0.28125 -5.332031 0.300781 -5.367188 0.34375 -5.390625 C 0.375 -5.410156 0.445312 -5.429688 0.5625 -5.453125 C 0.988281 -5.453125 1.382812 -5.390625 1.75 -5.265625 C 2.113281 -5.148438 2.410156 -4.96875 2.640625 -4.71875 C 2.890625 -4.445312 3.015625 -4.09375 3.015625 -3.65625 C 3.015625 -3.363281 2.921875 -3.085938 2.734375 -2.828125 C 2.554688 -2.566406 2.3125 -2.328125 2 -2.109375 C 2.101562 -1.929688 2.207031 -1.753906 2.3125 -1.578125 C 2.414062 -1.410156 2.519531 -1.238281 2.625 -1.0625 C 2.75 -0.875 2.863281 -0.679688 2.96875 -0.484375 C 3.082031 -0.296875 3.195312 -0.109375 3.3125 0.078125 C 3.320312 0.0859375 3.328125 0.109375 3.328125 0.140625 C 3.328125 0.179688 3.300781 0.210938 3.25 0.234375 C 3.195312 0.265625 3.132812 0.28125 3.0625 0.28125 C 2.894531 0.28125 2.78125 0.238281 2.71875 0.15625 L 2.21875 -0.65625 L 1.9375 -1.125 C 1.875 -1.226562 1.804688 -1.335938 1.734375 -1.453125 C 1.660156 -1.578125 1.585938 -1.707031 1.515625 -1.84375 C 1.429688 -1.8125 1.34375 -1.773438 1.25 -1.734375 C 1.164062 -1.703125 1.078125 -1.671875 0.984375 -1.640625 L 1 -0.921875 L 1.03125 -0.109375 C 1.03125 -0.0859375 1.03125 -0.0625 1.03125 -0.03125 C 1.03125 -0.0078125 1.03125 0.015625 1.03125 0.046875 Z M 0.96875 -2.625 L 0.984375 -2.015625 C 1.421875 -2.203125 1.765625 -2.4375 2.015625 -2.71875 C 2.273438 -3.007812 2.40625 -3.328125 2.40625 -3.671875 C 2.40625 -3.921875 2.335938 -4.15625 2.203125 -4.375 C 2.078125 -4.59375 1.894531 -4.769531 1.65625 -4.90625 C 1.425781 -5.039062 1.175781 -5.117188 0.90625 -5.140625 Z M 0.96875 -2.625 "/></g></g></g><g fill="#ff3131" fill-opacity="1"><g transform="translate(728.51622, 528.399006)"><g><path d="M 3.359375 -5.09375 C 3.410156 -5.09375 3.457031 -5.085938 3.5 -5.078125 C 3.539062 -5.066406 3.570312 -5.054688 3.59375 -5.046875 C 3.65625 -5.015625 3.6875 -4.976562 3.6875 -4.9375 C 3.6875 -4.894531 3.65625 -4.859375 3.59375 -4.828125 C 3.539062 -4.804688 3.460938 -4.796875 3.359375 -4.796875 C 3.203125 -4.796875 3.03125 -4.796875 2.84375 -4.796875 C 2.65625 -4.804688 2.457031 -4.816406 2.25 -4.828125 C 2.039062 -4.835938 1.84375 -4.84375 1.65625 -4.84375 C 1.46875 -4.851562 1.289062 -4.859375 1.125 -4.859375 C 1.125 -4.585938 1.125 -4.320312 1.125 -4.0625 C 1.132812 -3.800781 1.144531 -3.550781 1.15625 -3.3125 L 1.1875 -2.703125 L 2.3125 -2.71875 C 2.414062 -2.71875 2.492188 -2.703125 2.546875 -2.671875 C 2.609375 -2.640625 2.640625 -2.601562 2.640625 -2.5625 C 2.640625 -2.488281 2.554688 -2.441406 2.390625 -2.421875 C 2.296875 -2.410156 2.191406 -2.398438 2.078125 -2.390625 C 1.972656 -2.390625 1.851562 -2.390625 1.71875 -2.390625 L 1.1875 -2.390625 C 1.195312 -2.066406 1.210938 -1.78125 1.234375 -1.53125 C 1.253906 -1.289062 1.28125 -1.066406 1.3125 -0.859375 C 1.351562 -0.660156 1.40625 -0.460938 1.46875 -0.265625 L 1.59375 -0.140625 C 1.726562 -0.109375 1.859375 -0.09375 1.984375 -0.09375 C 2.160156 -0.09375 2.335938 -0.109375 2.515625 -0.140625 C 2.691406 -0.171875 2.910156 -0.226562 3.171875 -0.3125 L 3.40625 -0.375 C 3.5 -0.40625 3.578125 -0.421875 3.640625 -0.421875 C 3.722656 -0.421875 3.789062 -0.40625 3.84375 -0.375 C 3.90625 -0.34375 3.9375 -0.304688 3.9375 -0.265625 C 3.9375 -0.191406 3.816406 -0.117188 3.578125 -0.046875 C 3.421875 -0.00390625 3.242188 0.0351562 3.046875 0.078125 C 2.847656 0.117188 2.65625 0.148438 2.46875 0.171875 C 2.28125 0.203125 2.125 0.21875 2 0.21875 L 1.84375 0.203125 C 1.695312 0.203125 1.550781 0.1875 1.40625 0.15625 C 1.257812 0.132812 1.15625 0.0976562 1.09375 0.046875 C 0.90625 -0.128906 0.785156 -0.363281 0.734375 -0.65625 C 0.710938 -0.738281 0.691406 -0.820312 0.671875 -0.90625 C 0.660156 -1 0.648438 -1.09375 0.640625 -1.1875 C 0.617188 -1.3125 0.597656 -1.46875 0.578125 -1.65625 C 0.566406 -1.851562 0.554688 -2.097656 0.546875 -2.390625 L 0.25 -2.390625 C 0.0703125 -2.410156 -0.015625 -2.457031 -0.015625 -2.53125 C -0.015625 -2.5625 0.00390625 -2.59375 0.046875 -2.625 C 0.0976562 -2.65625 0.164062 -2.675781 0.25 -2.6875 L 0.53125 -2.6875 C 0.519531 -2.726562 0.515625 -2.796875 0.515625 -2.890625 C 0.515625 -2.984375 0.515625 -3.101562 0.515625 -3.25 C 0.515625 -3.519531 0.519531 -3.800781 0.53125 -4.09375 C 0.539062 -4.394531 0.554688 -4.703125 0.578125 -5.015625 C 0.617188 -5.066406 0.691406 -5.109375 0.796875 -5.140625 L 0.859375 -5.140625 C 1.273438 -5.140625 1.691406 -5.132812 2.109375 -5.125 C 2.660156 -5.101562 3.078125 -5.09375 3.359375 -5.09375 Z M 3.359375 -5.09375 "/></g></g></g><path fill="#0033ad" d="M 490.121094 290.886719 C 491.691406 283.398438 496.03125 286.296875 501.476562 288.445312 C 512.492188 292.78125 523.933594 293.929688 535.597656 291.757812 C 549.121094 289.242188 552.382812 281.929688 557.886719 270.382812 C 568.171875 248.847656 587.515625 233.402344 605.03125 217.921875 C 614.085938 209.917969 623.746094 202.300781 634.089844 195.996094 C 641.234375 191.648438 654.550781 181.464844 662.789062 180.59375 C 673.703125 179.4375 682.816406 197.21875 687.65625 205.296875 C 692.960938 214.140625 696.410156 224.441406 702.773438 232.613281 C 710.3125 242.304688 718.894531 241.917969 730.035156 238.507812 C 735.558594 236.8125 746.820312 230.679688 752.402344 235.371094 C 764.875 245.839844 725.355469 278.734375 718.980469 285.773438 C 718.753906 286.027344 718.539062 286.253906 718.316406 286.496094 C 718.242188 287.792969 718.261719 289.078125 718.71875 290.265625 C 719.816406 293.105469 723.261719 295.035156 724.921875 297.652344 C 726.484375 300.125 729.617188 306.359375 727.953125 309.246094 C 726.351562 312.023438 722.617188 313.773438 720.234375 310.238281 C 721.21875 314.316406 722.808594 318.285156 723.558594 322.421875 C 724.46875 327.421875 723.292969 332.671875 724.695312 337.4375 C 727.070312 345.554688 734.707031 352.808594 738.171875 360.746094 C 740.539062 366.167969 747.769531 379.160156 742.84375 383.710938 C 738.246094 387.960938 727.324219 380.859375 726.078125 389.351562 C 725.695312 392.015625 728.8125 396.597656 729.082031 399.328125 C 729.21875 400.730469 726.703125 401.746094 726.898438 403.011719 C 727.0625 404.132812 729.285156 405.058594 729.421875 406.25 C 729.90625 410.382812 727.941406 413.226562 727.628906 417.308594 C 727.164062 423.371094 729.78125 429.214844 725.898438 435.171875 C 721.539062 441.878906 714.570312 437.265625 708.269531 440.734375 C 704.582031 442.769531 702.289062 445.621094 697.90625 446.632812 C 693.160156 447.722656 687.808594 445.097656 683.316406 446.5 C 677.8125 448.226562 676.296875 454.570312 675.351562 459.59375 C 673.085938 471.675781 674.015625 484.65625 676.289062 497.015625 C 683.832031 498.710938 691.40625 499.898438 699.03125 500.238281 C 722.773438 501.28125 745.980469 499.425781 768.691406 492.472656 C 771.960938 491.46875 803.695312 486.011719 803.382812 492.945312 C 803.503906 490.234375 803.683594 487.527344 803.910156 484.828125 C 803.890625 485.089844 803.882812 485.128906 803.910156 484.824219 C 803.921875 484.636719 803.9375 484.476562 803.957031 484.296875 C 803.9375 484.515625 803.917969 484.695312 803.910156 484.824219 C 805.730469 462.847656 809.886719 440.976562 813.042969 419.15625 C 815.75 400.417969 818.632812 385.839844 808.703125 368.933594 C 805.644531 363.738281 802.554688 357.972656 800.046875 351.945312 C 784.945312 351.984375 769.832031 352.03125 754.722656 352.078125 C 754.425781 358.539062 752.5625 356.988281 744.109375 356.988281 C 744.109375 348.832031 744.109375 340.675781 744.109375 332.527344 C 744.109375 330.472656 743.421875 326.042969 744.699219 324.960938 C 745.332031 324.421875 754.011719 324.277344 754.785156 324.960938 C 755.488281 325.597656 755.789062 327.527344 755.875 330.027344 C 756.054688 330.035156 756.21875 330.035156 756.332031 330.035156 C 769.140625 329.613281 781.953125 329.195312 794.753906 328.777344 C 794.753906 327.203125 794.816406 325.640625 795 324.078125 C 796 315.59375 799.503906 310.820312 807.40625 307.984375 C 813.515625 305.796875 818.535156 307.359375 825.175781 307.445312 C 828.671875 307.492188 831.289062 306.242188 834.875 307.65625 C 836.105469 308.144531 838.976562 311.128906 840.230469 311.40625 C 841.621094 311.71875 842.945312 309.71875 844.8125 310.15625 C 852.53125 311.976562 854.339844 319.484375 854.910156 326.808594 C 868.855469 326.355469 882.804688 325.90625 896.75 325.445312 C 896.789062 323.550781 897.007812 322.03125 897.566406 321.40625 C 898.550781 320.3125 919.417969 320.0625 926.453125 320.871094 C 926.296875 316.519531 925.695312 316.636719 929.488281 315.175781 C 931.257812 314.492188 947.453125 313.78125 948.726562 315.175781 C 950.351562 316.949219 948.726562 327.707031 948.726562 329.964844 C 948.726562 337.84375 948.726562 345.722656 948.726562 353.597656 C 948.726562 359.902344 950.105469 360.171875 945.714844 361.882812 C 940.816406 363.78125 931.855469 361.882812 926.484375 361.882812 C 926.484375 359.839844 926.484375 357.792969 926.484375 355.753906 C 922.847656 356.117188 916.261719 355.207031 914.367188 355.207031 C 908.769531 355.207031 903.171875 355.207031 897.566406 355.207031 C 897.566406 353.484375 897.566406 351.765625 897.566406 350.042969 C 896.382812 352.328125 897.480469 351.21875 892.648438 351.664062 C 880.6875 352.773438 868.296875 352.300781 856.085938 351.996094 C 856.871094 367.417969 857.6875 382.816406 857.570312 398.324219 C 857.222656 442.652344 866.523438 486.917969 865.367188 531.082031 C 864.933594 547.515625 861.191406 568.996094 842.59375 574.019531 C 832.878906 576.644531 821.910156 573.96875 811.867188 575.847656 C 801.421875 577.808594 791.511719 581.683594 781.527344 585.203125 C 761.519531 592.25 742.949219 591.089844 722.328125 594.101562 C 721.464844 594.230469 720.609375 594.34375 719.75 594.457031 C 723.90625 600.40625 728.039062 607.113281 726.464844 613.90625 C 722.867188 629.335938 688.554688 624.617188 676.808594 625.179688 C 655.335938 626.21875 633.851562 626.957031 612.351562 627.386719 C 591.371094 627.8125 570.367188 627.441406 549.398438 628.027344 C 529.628906 628.585938 520.289062 623.890625 513.101562 604.507812 C 501.703125 573.773438 504.273438 528.796875 517.164062 498.675781 C 523.839844 483.09375 536.28125 478.261719 550.554688 471.363281 C 559.503906 467.027344 581.214844 452.109375 574.246094 439.019531 C 570.078125 431.195312 557.980469 433.109375 551.027344 430.691406 C 542.792969 427.832031 537.507812 420.585938 534.414062 412.734375 C 526.085938 391.5625 532.886719 368.820312 537.625 347.742188 C 538.144531 345.421875 538.597656 343.089844 539.042969 340.75 C 531.703125 338.050781 524.570312 334.359375 517.808594 330.226562 C 507.71875 324.050781 498.453125 315.25 493.539062 304.320312 C 491.964844 300.804688 489.277344 294.914062 490.121094 290.886719 " fill-opacity="1" fill-rule="nonzero"/><path fill="#0033ad" d="M 804.621094 476.261719 C 804.632812 476.101562 804.632812 476.089844 804.621094 476.261719 " fill-opacity="1" fill-rule="nonzero"/><path fill="#0033ad" d="M 804.070312 482.894531 C 804.421875 478.628906 804.582031 476.738281 804.621094 476.261719 C 804.5625 476.980469 804.269531 480.527344 804.070312 482.894531 " fill-opacity="1" fill-rule="nonzero"/><path fill="#0033ad" d="M 803.957031 484.296875 C 803.984375 483.925781 804.023438 483.445312 804.070312 482.894531 C 804.027344 483.332031 803.996094 483.804688 803.957031 484.296875 " fill-opacity="1" fill-rule="nonzero"/></svg>